<svg xmlns="http://www.w3.org/2000/svg" width="33" height="33" viewBox="0 0 33 33" fill="none">
  <g filter="url(#filter0_d_1278_5858)">
    <path d="M16.5 25C23.4036 25 29 19.4036 29 12.5C29 5.59644 23.4036 0 16.5 0C9.59644 0 4 5.59644 4 12.5C4 19.4036 9.59644 25 16.5 25Z" fill="white"/>
    <path d="M21.3928 10.4721C21.3853 10.0644 21.3084 9.6609 21.1656 9.27894C21.0387 8.95199 20.8451 8.65511 20.597 8.40729C20.3489 8.15947 20.0517 7.96616 19.7246 7.83974C19.3426 7.69702 18.9392 7.62017 18.5315 7.61246C18.0042 7.58576 17.8371 7.58008 16.5013 7.58008C15.1656 7.58008 14.9985 7.58576 14.4741 7.60906C14.0663 7.6166 13.6629 7.69345 13.2809 7.83633C12.9519 7.95958 12.654 8.15354 12.4082 8.40451C12.158 8.65012 11.9642 8.94711 11.84 9.27496C11.6973 9.65697 11.6204 10.0604 11.6127 10.4681C11.5877 10.9971 11.582 11.1642 11.582 12.5C11.582 13.8358 11.5877 14.0005 11.611 14.5272C11.6185 14.935 11.6954 15.3385 11.8383 15.7204C11.9649 16.0472 12.1583 16.344 12.4061 16.5918C12.6539 16.8396 12.9507 17.033 13.2775 17.1596C13.6595 17.3023 14.0629 17.3792 14.4707 17.3869C14.9951 17.4102 15.1627 17.4159 16.4979 17.4159C17.8332 17.4159 18.0008 17.4102 18.5252 17.3869C18.933 17.3794 19.3364 17.3025 19.7184 17.1596C20.0453 17.0332 20.3422 16.8399 20.59 16.592C20.8378 16.3442 21.0312 16.0473 21.1576 15.7204C21.3003 15.3384 21.3771 14.935 21.3849 14.5272C21.4082 14.0028 21.4138 13.8352 21.4138 12.5C21.4138 11.1647 21.4138 10.9971 21.3888 10.4727L21.3928 10.4721ZM20.5065 14.4892C20.5029 14.8011 20.4452 15.11 20.336 15.4022C20.254 15.6144 20.1286 15.8072 19.9677 15.968C19.8068 16.1289 19.6141 16.2543 19.4019 16.3363C19.1097 16.4454 18.8008 16.503 18.4888 16.5068C17.9701 16.5301 17.8144 16.5358 16.5002 16.5358C15.186 16.5358 15.0298 16.5301 14.5116 16.5068C14.1996 16.5032 13.8907 16.4456 13.5985 16.3363C13.3851 16.258 13.192 16.1325 13.0337 15.9693C12.8709 15.8106 12.7456 15.6177 12.6667 15.4045C12.5577 15.1123 12.5 14.8033 12.4962 14.4914C12.4729 13.9727 12.4673 13.817 12.4673 12.5028C12.4673 11.1886 12.4729 11.0324 12.4962 10.5142C12.4998 10.2022 12.5575 9.8933 12.6667 9.6011C12.7452 9.38716 12.8715 9.19399 13.036 9.03633C13.1946 8.87347 13.3876 8.74808 13.6008 8.66928C13.893 8.5603 14.2019 8.50263 14.5138 8.49883C15.0326 8.47553 15.1883 8.46985 16.5025 8.46985C17.8167 8.46985 17.9729 8.47553 18.4911 8.49883C18.803 8.50241 19.112 8.56008 19.4042 8.66928C19.6176 8.74762 19.8107 8.87308 19.969 9.03633C20.1318 9.19496 20.2572 9.3879 20.336 9.6011C20.445 9.89337 20.5027 10.2023 20.5065 10.5142C20.5298 11.0329 20.5354 11.1886 20.5354 12.5028C20.5354 13.817 20.5298 13.9693 20.5065 14.488V14.4892Z" fill="black"/>
    <path d="M16.5038 9.97363C16.004 9.97363 15.5154 10.1219 15.0998 10.3996C14.6842 10.6773 14.3602 11.072 14.1689 11.5338C13.9777 11.9956 13.9276 12.5037 14.0251 12.994C14.1226 13.4842 14.3633 13.9345 14.7168 14.288C15.0702 14.6414 15.5205 14.8821 16.0108 14.9796C16.501 15.0771 17.0092 15.0271 17.471 14.8358C17.9328 14.6445 18.3275 14.3206 18.6052 13.905C18.8829 13.4894 19.0311 13.0008 19.0311 12.5009C19.031 11.8307 18.7646 11.1879 18.2907 10.714C17.8168 10.2401 17.1741 9.97378 16.5038 9.97363ZM16.5038 14.1401C16.1796 14.1401 15.8627 14.044 15.5931 13.8639C15.3236 13.6837 15.1135 13.4277 14.9894 13.1282C14.8653 12.8287 14.8329 12.4991 14.8961 12.1811C14.9594 11.8631 15.1155 11.5711 15.3447 11.3418C15.574 11.1126 15.8661 10.9564 16.184 10.8932C16.502 10.8299 16.8316 10.8624 17.1311 10.9865C17.4307 11.1105 17.6867 11.3206 17.8668 11.5902C18.0469 11.8598 18.143 12.1767 18.143 12.5009C18.1429 12.9356 17.9701 13.3525 17.6628 13.6598C17.3554 13.9672 16.9385 14.14 16.5038 14.1401Z" fill="black"/>
    <path d="M19.7196 9.87298C19.7196 9.98962 19.685 10.1037 19.6202 10.2006C19.5554 10.2976 19.4633 10.3732 19.3555 10.4179C19.2477 10.4625 19.1292 10.4742 19.0148 10.4514C18.9004 10.4287 18.7953 10.3725 18.7128 10.29C18.6303 10.2075 18.5741 10.1024 18.5514 9.98804C18.5286 9.87363 18.5403 9.75505 18.5849 9.64728C18.6296 9.53951 18.7052 9.4474 18.8022 9.3826C18.8991 9.31779 19.0132 9.2832 19.1298 9.2832C19.2862 9.2832 19.4363 9.34534 19.5469 9.45594C19.6575 9.56655 19.7196 9.71656 19.7196 9.87298Z" fill="black"/>
  </g>
  <defs>
    <filter id="filter0_d_1278_5858" x="0" y="0" width="33" height="33" filterUnits="userSpaceOnUse" color-interpolation-filters="sRGB">
      <feFlood flood-opacity="0" result="BackgroundImageFix"/>
      <feColorMatrix in="SourceAlpha" type="matrix" values="0 0 0 0 0 0 0 0 0 0 0 0 0 0 0 0 0 0 127 0" result="hardAlpha"/>
      <feOffset dy="4"/>
      <feGaussianBlur stdDeviation="2"/>
      <feComposite in2="hardAlpha" operator="out"/>
      <feColorMatrix type="matrix" values="0 0 0 0 0 0 0 0 0 0 0 0 0 0 0 0 0 0 0.05 0"/>
      <feBlend mode="normal" in2="BackgroundImageFix" result="effect1_dropShadow_1278_5858"/>
      <feBlend mode="normal" in="SourceGraphic" in2="effect1_dropShadow_1278_5858" result="shape"/>
    </filter>
  </defs>
</svg>