<svg xmlns="http://www.w3.org/2000/svg" width="33" height="33" viewBox="0 0 33 33" fill="none">
  <g filter="url(#filter0_d_1278_5865)">
    <path d="M16.5 25C23.4036 25 29 19.4036 29 12.5C29 5.59644 23.4036 0 16.5 0C9.59644 0 4 5.59644 4 12.5C4 19.4036 9.59644 25 16.5 25Z" fill="white"/>
    <path d="M22.3099 8.97967C21.8728 9.1703 21.4104 9.29698 20.9372 9.35581C21.436 9.06009 21.809 8.59168 21.9855 8.03933C21.5184 8.31632 21.0075 8.51137 20.4747 8.61604C20.148 8.26733 19.724 8.0249 19.2578 7.92026C18.7916 7.81562 18.3046 7.85359 17.8603 8.02924C17.4159 8.20489 17.0346 8.51011 16.7659 8.90525C16.4973 9.30039 16.3536 9.76719 16.3537 10.245C16.3523 10.4276 16.3714 10.6098 16.4105 10.7882C15.4628 10.7417 14.5355 10.4956 13.6894 10.0662C12.8433 9.63679 12.0973 9.03362 11.5002 8.29615C11.1943 8.82002 11.0997 9.44085 11.2356 10.0321C11.3716 10.6233 11.728 11.1404 12.2321 11.478C11.855 11.4679 11.486 11.3674 11.1559 11.1848V11.2143C11.1565 11.7644 11.3467 12.2975 11.6943 12.7239C12.0419 13.1502 12.5257 13.4438 13.0645 13.5552C12.8605 13.609 12.6503 13.6353 12.4395 13.6337C12.288 13.6363 12.1368 13.6226 11.9883 13.5927C12.1428 14.0645 12.4395 14.4768 12.8377 14.7733C13.2358 15.0697 13.716 15.2357 14.2122 15.2484C13.369 15.909 12.3287 16.2677 11.2576 16.2672C11.0677 16.2683 10.878 16.2573 10.6895 16.2342C11.7787 16.9364 13.0481 17.3078 14.344 17.3035C15.2361 17.3098 16.1205 17.1388 16.9459 16.8003C17.7712 16.4619 18.5212 15.9628 19.152 15.3321C19.7829 14.7014 20.2822 13.9516 20.6208 13.1263C20.9595 12.301 21.1307 11.4166 21.1247 10.5246C21.1247 10.4194 21.1213 10.3177 21.1162 10.2166C21.586 9.88029 21.9905 9.46112 22.3099 8.97967Z" fill="black"/>
  </g>
  <defs>
    <filter id="filter0_d_1278_5865" x="0" y="0" width="33" height="33" filterUnits="userSpaceOnUse" color-interpolation-filters="sRGB">
      <feFlood flood-opacity="0" result="BackgroundImageFix"/>
      <feColorMatrix in="SourceAlpha" type="matrix" values="0 0 0 0 0 0 0 0 0 0 0 0 0 0 0 0 0 0 127 0" result="hardAlpha"/>
      <feOffset dy="4"/>
      <feGaussianBlur stdDeviation="2"/>
      <feComposite in2="hardAlpha" operator="out"/>
      <feColorMatrix type="matrix" values="0 0 0 0 0 0 0 0 0 0 0 0 0 0 0 0 0 0 0.05 0"/>
      <feBlend mode="normal" in2="BackgroundImageFix" result="effect1_dropShadow_1278_5865"/>
      <feBlend mode="normal" in="SourceGraphic" in2="effect1_dropShadow_1278_5865" result="shape"/>
    </filter>
  </defs>
</svg>