<svg xmlns="http://www.w3.org/2000/svg" width="66" height="20" viewBox="0 0 66 20" fill="none">
<path d="M8.78906 0C5.88129 0 3.51562 2.36566 3.51562 5.27344C3.51562 8.18121 5.88129 10.5469 8.78906 10.5469C11.6968 10.5469 14.0625 8.18121 14.0625 5.27344C14.0625 2.36566 11.6968 0 8.78906 0Z" fill="#735CFF"/>
<path d="M15.3502 13.992C13.9065 12.5261 11.9925 11.7188 9.96094 11.7188H7.61719C5.58563 11.7188 3.67164 12.5261 2.22789 13.992C0.791211 15.4507 0 17.3763 0 19.4141C0 19.7377 0.262344 20 0.585938 20H16.9922C17.3158 20 17.5781 19.7377 17.5781 19.4141C17.5781 17.3763 16.7869 15.4507 15.3502 13.992Z" fill="#735CFF"/>
<path d="M52.6231 20C53.7276 20 54.6231 19.1046 54.6231 18C54.6231 16.8954 53.7276 16 52.6231 16C51.5185 16 50.623 16.8954 50.623 18C50.623 19.1046 51.5185 20 52.6231 20Z" fill="#735CFF"/>
<path d="M59.334 20C60.4386 20 61.334 19.1046 61.334 18C61.334 16.8954 60.4386 16 59.334 16C58.2294 16 57.334 16.8954 57.334 18C57.334 19.1046 58.2294 20 59.334 20Z" fill="#735CFF"/>
<path d="M43.2448 1.33337H46.0249L49.2435 12.6006L48.991 13.1055C48.3263 14.4335 49.2913 16 50.7801 16H62.0003C62.3688 16 62.667 15.7018 62.667 15.3333C62.667 14.9648 62.3688 14.6667 62.0003 14.6667H50.7801C50.285 14.6667 49.9615 14.1454 50.1837 13.7018L50.368 13.3333H62.0003C62.2978 13.3333 62.5595 13.1361 62.6416 12.8496L65.3082 3.5163C65.3655 3.31515 65.3252 3.09897 65.1995 2.93168C65.0732 2.76501 64.876 2.6667 64.667 2.6667H47.7925L47.1688 0.483732C47.0867 0.197288 46.825 0 46.5275 0H43.2448C42.8763 0 42.5781 0.298177 42.5781 0.666665C42.5781 1.03515 42.8763 1.33337 43.2448 1.33337Z" fill="#735CFF"/>
</svg>